<?xml version="1.0" encoding="UTF-8"?>
<svg width="21px" height="18px" viewBox="0 0 21 18" version="1.1" xmlns="http://www.w3.org/2000/svg" xmlns:xlink="http://www.w3.org/1999/xlink">
    <!-- Generator: sketchtool 63.1 (101010) - https://sketch.com -->
    <title>4DAC7F06-129D-4A8E-A4B6-F8E4C0D8660ESVG</title>
    <desc>Created with sketchtool.</desc>
    <g id="BO-Cad-Dig" stroke="none" stroke-width="1" fill="none" fill-rule="evenodd">
        <g id="Login" transform="translate(-847.000000, -513.000000)" fill-rule="nonzero">
            <g id="Group-2" transform="translate(450.000000, 246.000000)">
                <g id="mdi-eye-off" transform="translate(397.000000, 265.000000)">
                    <g id="Icon" transform="translate(0.000000, 1.909091)" fill="#848484">
                        <path d="M10.35125,5.96590909 L13.125,8.73090909 L13.125,8.59090909 C13.125,7.14116162 11.9497475,5.96590909 10.5,5.96590909 L10.35125,5.96590909 M6.58875,6.66590909 L7.945,8.02215909 C7.90125,8.20590909 7.875,8.38965909 7.875,8.59090909 C7.875,10.0406566 9.05025253,11.2159091 10.5,11.2159091 C10.6925,11.2159091 10.885,11.1896591 11.06875,11.1459091 L12.425,12.5021591 C11.83875,12.7909091 11.19125,12.9659091 10.5,12.9659091 C8.08375422,12.9659091 6.125,11.0071549 6.125,8.59090909 C6.125,7.89965909 6.3,7.25215909 6.58875,6.66590909 M1.75,1.82715909 L3.745,3.82215909 L4.13875,4.21590909 C2.695,5.35340909 1.5575,6.84090909 0.875,8.59090909 C2.38875,12.4321591 6.125,15.1534091 10.5,15.1534091 C11.85625,15.1534091 13.15125,14.8909091 14.3325,14.4184091 L14.70875,14.7859091 L17.26375,17.3409091 L18.375,16.2296591 L2.86125,0.715909091 M10.5,4.21590909 C12.9162458,4.21590909 14.875,6.17466331 14.875,8.59090909 C14.875,9.15090909 14.76125,9.69340909 14.56,10.1834091 L17.12375,12.7471591 C18.43625,11.6534091 19.48625,10.2184091 20.125,8.59090909 C18.61125,4.74965909 14.875,2.02840909 10.5,2.02840909 C9.275,2.02840909 8.1025,2.24715909 7,2.64090909 L8.89875,4.52215909 C9.3975,4.32965909 9.93125,4.21590909 10.5,4.21590909 Z" id="Icon-Shape"></path>
                    </g>
                    <rect id="ViewBox" x="0" y="0" width="21" height="21"></rect>
                </g>
            </g>
        </g>
    </g>
</svg>