<?xml version="1.0" encoding="UTF-8"?>
<svg width="21px" height="15px" viewBox="0 0 21 15" version="1.1" xmlns="http://www.w3.org/2000/svg" xmlns:xlink="http://www.w3.org/1999/xlink">
    <!-- Generator: sketchtool 63.1 (101010) - https://sketch.com -->
    <title>1F108B51-F51A-4C24-A1C3-C4BE2780BA5BSVG</title>
    <desc>Created with sketchtool.</desc>
    <g id="BO-Cad-Dig" stroke="none" stroke-width="1" fill="none" fill-rule="evenodd">
        <g id="Login" transform="translate(-820.000000, -514.000000)" fill-rule="nonzero">
            <g id="Group-2" transform="translate(450.000000, 246.000000)">
                <g id="mdi-eye" transform="translate(370.000000, 265.000000)">
                    <g id="Icon" fill="#848484">
                        <path d="M10.5,7.875 C9.05025253,7.875 7.875,9.05025253 7.875,10.5 C7.875,11.9497475 9.05025253,13.125 10.5,13.125 C11.9497475,13.125 13.125,11.9497475 13.125,10.5 C13.125,9.05025253 11.9497475,7.875 10.5,7.875 M10.5,14.875 C8.08375422,14.875 6.125,12.9162458 6.125,10.5 C6.125,8.08375422 8.08375422,6.125 10.5,6.125 C12.9162458,6.125 14.875,8.08375422 14.875,10.5 C14.875,12.9162458 12.9162458,14.875 10.5,14.875 M10.5,3.9375 C6.125,3.9375 2.38875,6.65875 0.875,10.5 C2.38875,14.34125 6.125,17.0625 10.5,17.0625 C14.875,17.0625 18.61125,14.34125 20.125,10.5 C18.61125,6.65875 14.875,3.9375 10.5,3.9375 Z" id="Icon-Shape"></path>
                    </g>
                    <rect id="ViewBox" x="0" y="0" width="21" height="21"></rect>
                </g>
            </g>
        </g>
    </g>
</svg>