<?xml version="1.0" encoding="UTF-8"?>
<svg width="32px" height="22px" viewBox="0 0 32 22" version="1.1" xmlns="http://www.w3.org/2000/svg" xmlns:xlink="http://www.w3.org/1999/xlink">
    <!-- Generator: sketchtool 63.1 (101010) - https://sketch.com -->
    <title>ABCC1B24-954D-4555-B9FC-3E8B835F68E2SVG</title>
    <desc>Created with sketchtool.</desc>
    <defs>
        <path d="M25.8,8.05333333 C24.8933333,3.45333333 20.8533333,0 16,0 C12.1466667,0 8.8,2.18666667 7.13333333,5.38666667 C3.12,5.81333333 0,9.21333333 0,13.3333333 C0,17.7466667 3.58666667,21.3333333 8,21.3333333 L25.3333333,21.3333333 C29.0133333,21.3333333 32,18.3466667 32,14.6666667 C32,11.1466667 29.2666667,8.29333333 25.8,8.05333333 Z M18.6666667,12 L18.6666667,17.3333333 L13.3333333,17.3333333 L13.3333333,12 L9.33333333,12 L16,5.33333333 L22.6666667,12 L18.6666667,12 Z" id="path-1"></path>
    </defs>
    <g id="BO-Cad-Dig" stroke="none" stroke-width="1" fill="none" fill-rule="evenodd">
        <g id="Nueva-org-Copy-3" transform="translate(-482.000000, -394.000000)">
            <g id="Group-4" transform="translate(480.000000, 394.000000)">
                <g id="Get-Started-Copy">
                    <g id="Group-6">
                        <g id="ic/cloud_upload" transform="translate(2.000000, 0.000000)">
                            <g id="ic_cloud_upload_24px">
                                <mask id="mask-2" fill="white">
                                    <use xlink:href="#path-1"></use>
                                </mask>
                                <use id="Shape" fill="#0091FF" fill-rule="nonzero" xlink:href="#path-1"></use>
                            </g>
                        </g>
                    </g>
                </g>
            </g>
        </g>
    </g>
</svg>