<svg xmlns="http://www.w3.org/2000/svg" viewBox="0 0 1000 1000"><defs><style>.a{fill:#fff;}</style></defs><path class="a" d="M500.35,852.44a24.56,24.56,0,0,1-11.9-3.07L128.68,650.16a24.58,24.58,0,0,1,23.8-43L500.34,799.76,847.5,607.16a24.58,24.58,0,0,1,23.84,43L512.28,849.36A24.66,24.66,0,0,1,500.35,852.44Z"/><path class="a" d="M500.35,723.08a24.56,24.56,0,0,1-11.9-3.07L128.68,520.8a24.57,24.57,0,1,1,23.8-43L500.34,670.4,847.5,477.8a24.58,24.58,0,0,1,23.84,43L512.28,720A24.66,24.66,0,0,1,500.35,723.08Z"/><path class="a" d="M500.35,593.71a24.54,24.54,0,0,1-11.9-3.07L128.68,391.43a24.57,24.57,0,0,1,0-43L487.9,150.61a24.58,24.58,0,0,1,23.7,0L871.26,348.4a24.57,24.57,0,0,1,.08,43L512.28,590.63A24.66,24.66,0,0,1,500.35,593.71ZM191.42,370,500.34,541,808.59,370,499.76,200.19Z"/></svg>