<svg xmlns="http://www.w3.org/2000/svg" viewBox="0 0 1000 1000"><defs><style>.a{fill:#fff;}</style></defs><path class="a" d="M378.52,485.21C376.59,482,371.3,479,365.2,479c-7.87,0-11.64,3.29-11.64,7.46,0,4.9,5.78,6.26,12.52,7.06,11.72,1.45,22.63,4.5,22.63,17.9,0,12.52-11.07,17.89-23.59,17.89-11.48,0-20.3-3.53-24.48-13.8l8.83-4.57c2.49,6.17,9,8.9,15.81,8.9,6.66,0,12.92-2.32,12.92-8.42,0-5.3-5.54-7.47-13-8.27-11.48-1.36-22.07-4.41-22.07-17,0-11.56,11.4-16.29,21.75-16.37,8.74,0,17.81,2.49,22.06,11.15Z"/><path class="a" d="M411.42,481.28H393.61v-9.64h46.22v9.64H422v46.54h-10.6Z"/><path class="a" d="M486.14,517.22H456.77L452,527.82H440.48l25.19-56.18h11.56l25.2,56.18H490.87Zm-14.69-33.78L461,507.35h20.86Z"/><path class="a" d="M553.39,520.76c-5.78,5.69-13.24,8.34-21.35,8.34-20.86,0-29.69-14.36-29.77-29s9.47-29.61,29.77-29.61a29,29,0,0,1,20.63,8.59l-7.07,6.82a19.29,19.29,0,0,0-13.56-5.3c-13.56,0-19.42,10.11-19.34,19.5s5.46,19,19.34,19a20.71,20.71,0,0,0,14.13-5.7Z"/><path class="a" d="M604.51,472l-25,26.88,27,28.33v.64H593.51L570,502.94v24.88H559.41V471.64H570V495.4l21.35-23.76h13.16Z"/><path class="a" d="M661.49,520.76c-5.78,5.69-13.24,8.34-21.35,8.34-20.86,0-29.69-14.36-29.77-29s9.47-29.61,29.77-29.61a29,29,0,0,1,20.63,8.59l-7.07,6.82a19.29,19.29,0,0,0-13.56-5.3c-13.56,0-19.42,10.11-19.34,19.5s5.46,19,19.34,19a20.71,20.71,0,0,0,14.13-5.7Z"/><path class="a" d="M677.22,471.64V518h28.89v9.79H666.63V471.64Z"/><path class="a" d="M767.1,500.05c-.16,14.53-9.07,29.05-28.81,29.05s-28.89-14.2-28.89-29,9.47-29.61,28.89-29.61S767.26,485.37,767.1,500.05Zm-47.27.24c.24,9.23,5.22,19.1,18.46,19.1s18.22-9.95,18.38-19.18c.16-9.47-5.14-20.06-18.38-20.06S719.59,490.82,719.83,500.29Z"/><path class="a" d="M824.16,471.73V503.9c0,16.61-10.19,25.12-24.32,25.12-13.48,0-25-8.18-25-25.12V471.73H785.4V503.9c0,10.11,5.78,15.49,14.52,15.49s13.73-5.86,13.73-15.49V471.73Z"/><path class="a" d="M884,499.25c.24,14.2-8.43,28.57-28.09,28.57H833.79V471.64h22.07C875.12,471.64,883.71,485.37,884,499.25ZM844.3,517.63h11.56c12.76,0,17.81-9.31,17.57-18.46-.24-8.75-5.37-17.49-17.57-17.49H844.3Z"/><path class="a" d="M205.35,584.69a6,6,0,0,1-2.86-.74l-86.44-47.87a5.9,5.9,0,1,1,5.72-10.33L205.35,572l83.42-46.28a5.91,5.91,0,0,1,5.73,10.33l-86.28,47.86A5.86,5.86,0,0,1,205.35,584.69Z"/><path class="a" d="M205.35,553.6a5.84,5.84,0,0,1-2.86-.74L116.05,505a5.9,5.9,0,1,1,5.72-10.33l83.58,46.27,83.42-46.27A5.9,5.9,0,0,1,294.5,505l-86.28,47.87A6,6,0,0,1,205.35,553.6Z"/><path class="a" d="M205.35,522.52a6,6,0,0,1-2.86-.74l-86.44-47.87a5.9,5.9,0,0,1,0-10.34l86.3-47.52a5.87,5.87,0,0,1,5.69,0l86.43,47.52a5.91,5.91,0,0,1,0,10.34l-86.28,47.87A6,6,0,0,1,205.35,522.52Zm-74.23-53.76,74.23,41.1,74.07-41.09L205.21,428Z"/><path class="a" d="M775.09,551.77a2,2,0,0,1-4.05,0A2,2,0,0,1,775.09,551.77Z"/><path class="a" d="M789.41,551.77a7.11,7.11,0,0,1-5.34,2.2c-4,0-7.37-2.42-7.37-7.35s3.34-7.34,7.37-7.34a6.59,6.59,0,0,1,5,2.05l-2.17,2.28a4.24,4.24,0,0,0-2.79-1.1,3.9,3.9,0,0,0-4,4.11,3.77,3.77,0,0,0,3.94,4,4.21,4.21,0,0,0,3-1.15Z"/><path class="a" d="M805,546.62a7.22,7.22,0,1,1-7.26-7.23A7,7,0,0,1,805,546.62Zm-11,0c0,2.11,1.26,4.08,3.77,4.08s3.77-2,3.77-4.08a3.93,3.93,0,0,0-3.77-4.11A3.81,3.81,0,0,0,794,546.62Z"/><path class="a" d="M816.59,553.54v-7.42c0-1.83-1-3.49-2.85-3.49s-3,1.66-3,3.49v7.42h-3.43v-13.9h3.18l.25,1.69a4,4,0,0,1,3.66-1.91,4.15,4.15,0,0,1,4.11,2.59,5,5,0,0,1,4.64-2.53c3.94,0,5.88,2.42,5.88,6.58v7.48h-3.43v-7.48c0-1.83-.76-3.38-2.62-3.38a3.16,3.16,0,0,0-3,3.44v7.42Z"/><path class="a" d="M836.53,551.77a2,2,0,0,1-4,0A2,2,0,0,1,836.53,551.77Z"/><path class="a" d="M848.6,553.54v-7.42c0-1.83-1-3.49-2.84-3.49s-3,1.66-3,3.49v7.42h-3.43v-13.9h3.18l.25,1.69a4,4,0,0,1,3.66-1.91,4.15,4.15,0,0,1,4.11,2.59,5,5,0,0,1,4.64-2.53c3.94,0,5.88,2.42,5.88,6.58v7.48h-3.43v-7.48c0-1.83-.76-3.38-2.62-3.38a3.17,3.17,0,0,0-3,3.44v7.42Z"/><path class="a" d="M873.41,539.67h4.11v.12L873,546.51l4.84,7v.08h-4.11l-3-4.64-3,4.64h-4.11v-.08l4.84-7-4.56-6.72v-.12H868l2.73,4.7Z"/></svg>