<?xml version="1.0" encoding="UTF-8"?>
<svg width="18px" height="18px" viewBox="0 0 18 18" version="1.1" xmlns="http://www.w3.org/2000/svg" xmlns:xlink="http://www.w3.org/1999/xlink">
    <!-- Generator: sketchtool 63.1 (101010) - https://sketch.com -->
    <title>60A0B7B8-DFCD-4DE8-B611-DE7C6A2E3FD1SVG</title>
    <desc>Created with sketchtool.</desc>
    <defs>
        <path d="M12.5,11 L11.71,11 L11.43,10.73 C12.41,9.59 13,8.11 13,6.5 C13,2.91 10.09,0 6.5,0 C2.91,0 0,2.91 0,6.5 C0,10.09 2.91,13 6.5,13 C8.11,13 9.59,12.41 10.73,11.43 L11,11.71 L11,12.5 L16,17.49 L17.49,16 L12.5,11 Z M6.5,11 C4.01,11 2,8.99 2,6.5 C2,4.01 4.01,2 6.5,2 C8.99,2 11,4.01 11,6.5 C11,8.99 8.99,11 6.5,11 Z" id="path-1"></path>
    </defs>
    <g id="BO-Cad-Dig" stroke="none" stroke-width="1" fill="none" fill-rule="evenodd">
        <g id="Organizaciones-Copy-2" transform="translate(-183.000000, -162.000000)">
            <g id="ic/search" transform="translate(183.000000, 162.000000)">
                <g id="ic_search_24px">
                    <mask id="mask-2" fill="white">
                        <use xlink:href="#path-1"></use>
                    </mask>
                    <g id="Shape" fill-rule="nonzero"></g>
                    <g id="🎨-Color" mask="url(#mask-2)" fill="#000000">
                        <g transform="translate(-3.000000, -3.000000)" id="Shape">
                            <rect x="0" y="0" width="24" height="24"></rect>
                        </g>
                    </g>
                </g>
            </g>
        </g>
    </g>
</svg>